# xmcd
#
# Track frame offsets: 
#        150
#        14593
#        27212
#        40948
#        55395
#        69443
#        83155
#        96890
#        112386
#        124840
#        137566
#        151761
#        165606
#        179602
#        193799
#        208734
#        221167
#        236531
#        251307
#        262922
#        277218
#        292927
#        307022
#        319100
#        332943
#
# Disc length: 4615 seconds
#
# Revision: 1
# Processed by: cddbd v1.5.2PL0 Copyright (c) Steve Scherf et al.
# Submitted via: ExactAudioCopy v0.99pb5
#
DISCID=7c120519
DTITLE=Various Artist - Ain't Times Hard CD2
DYEAR=2008
DGENRE=Blues
TTITLE0=Lucille Bogan - Red Cross Man
TTITLE1=Sonny Scott - Coal Mountain Blues
TTITLE2=Walter Roland - Red Cross Blues No 2
TTITLE3=Joe Stone - It's Hard Time
TTITLE4=Jack Kelly - R.F.C. Blues
TTITLE5=Walter Davis - Red Cross Blues
TTITLE6=Mississippi Sheiks - Sales Tax
TTITLE7=Joshua White - Welfare Blues
TTITLE8=Walter Roland - C.W.A. Blues
TTITLE9=Bob Campbell - Starvation Farm Blues
TTITLE10=Charlie McCoy - Charity Blues
TTITLE11=Memphis Minnie - Sylvester and His Mule Blues
TTITLE12=Big Joe Williams - Providence Help The Poor Peoiple
TTITLE13=Blind Terry Darby - Meat and Bread Blues
TTITLE14=Lane Hardin - Hard Time Blues
TTITLE15=Carl Martin - Let's Have a Good Deal
TTITLE16=Joe Pullam - Bonus Blues
TTITLE17=Casey Bill Weldon - W.P.A. Blues
TTITLE18=Peetie Wheatstraw - When I Get My Bonus
TTITLE19=Bumble Bee Slim - When I Get My Money
TTITLE20=Carl Martin - I'm Gonna Have My Fun
TTITLE21=Peetie Wheatstraw - Jungle Man Blues
TTITLE22=Red Nelson - When The Soldiers Get Their Bonus
TTITLE23=Big Bill Broonzy - W.P.A. Blues
TTITLE24=Jimmie Gordon - Don't Take Away My P.W.A.
EXTD=
EXTT0=
EXTT1=
EXTT2=
EXTT3=
EXTT4=
EXTT5=
EXTT6=
EXTT7=
EXTT8=
EXTT9=
EXTT10=
EXTT11=
EXTT12=
EXTT13=
EXTT14=
EXTT15=
EXTT16=
EXTT17=
EXTT18=
EXTT19=
EXTT20=
EXTT21=
EXTT22=
EXTT23=
EXTT24=
PLAYORDER=
